<?xml version="1.0" encoding="utf-8"?>
<!-- Generator: Adobe Illustrator 15.0.0, SVG Export Plug-In . SVG Version: 6.00 Build 0)  -->
<!DOCTYPE svg PUBLIC "-//W3C//DTD SVG 1.1//EN" "http://www.w3.org/Graphics/SVG/1.1/DTD/svg11.dtd">
<svg version="1.1" id="ypkreis_x5F_white" xmlns="http://www.w3.org/2000/svg" xmlns:xlink="http://www.w3.org/1999/xlink" x="0px"
	 y="0px" width="700px" height="700px" viewBox="0 0 700 700" enable-background="new 0 0 700 700" xml:space="preserve">
<g>
	<rect fill="#03A9F4" width="700" height="700"/>
	<g>
		<linearGradient id="SVGID_1_" gradientUnits="userSpaceOnUse" x1="349.4351" y1="65.3657" x2="349.435" y2="471.0522">
			<stop  offset="0" style="stop-color:#FFFFFF"/>
			<stop  offset="0.0226" style="stop-color:#FFFFFF"/>
			<stop  offset="0.16" style="stop-color:#FFFFFF"/>
			<stop  offset="0.5" style="stop-color:#FFFFFF;stop-opacity:0"/>
			<stop  offset="0.84" style="stop-color:#FFFFFF"/>
			<stop  offset="1" style="stop-color:#FFFFFF"/>
		</linearGradient>
		<path fill="url(#SVGID_1_)" d="M350.391,471.052c-111.848,0-202.843-90.995-202.843-202.842
			c0-111.849,90.995-202.844,202.843-202.844c48.638,0,95.68,17.479,132.462,49.217c36.385,31.397,60.508,74.712,67.925,121.967
			l0.544,3.468l-56.511-0.037l-0.448-2.462c-12.437-68.409-71.64-116.186-143.973-116.186c-80.988,0-146.877,65.889-146.877,146.877
			c0,80.988,65.889,146.875,146.877,146.875c70.034,0,134.613-50.678,143.958-112.969l0.383-2.553l56.127-0.038l-0.608,3.515
			C533.388,400.393,449.335,471.052,350.391,471.052z"/>
	</g>
	<g>
		<path fill="#FFFFFF" d="M349.909,471.233c-111.783,0-202.725-90.942-202.725-202.727c0-111.783,90.942-202.725,202.725-202.725
			l3,3v49.931l-3,3c-80.942,0-146.793,65.851-146.793,146.793S268.967,415.3,349.909,415.3l3,3v49.934L349.909,471.233z"/>
	</g>
	<path fill="#FFFFFF" d="M566.481,658.572c-13.318-11.83-29.697-22.668-48.69-32.077c-47.508-23.534-108.442-36.496-171.578-36.496
		c-55.252,0-107.931,9.554-152.341,27.627c-27.47,11.18-50.55,25.067-68.268,40.947H48.276c1.421-2.36,2.908-4.701,4.46-7.02
		c24.727-36.948,65.73-67.846,118.578-89.354c51.506-20.962,111.985-32.041,174.898-32.041c73.216,0,141.732,14.771,198.142,42.715
		c28.203,13.972,52.234,30.777,71.425,49.949c11.295,11.285,20.764,23.236,28.339,35.749H566.481z"/>
</g>
</svg>
