<?xml version="1.0" encoding="utf-8"?>
<!-- Generator: Adobe Illustrator 15.0.0, SVG Export Plug-In . SVG Version: 6.00 Build 0)  -->
<!DOCTYPE svg PUBLIC "-//W3C//DTD SVG 1.1//EN" "http://www.w3.org/Graphics/SVG/1.1/DTD/svg11.dtd">
<svg version="1.1" id="ypkreis_x5F_white" xmlns="http://www.w3.org/2000/svg" xmlns:xlink="http://www.w3.org/1999/xlink" x="0px"
	 y="0px" width="700px" height="700px" viewBox="0 0 700 700" enable-background="new 0 0 700 700" xml:space="preserve">
<g>
	<rect fill="#03A9F4" width="700" height="700"/>
	<path fill="#FFFFFF" d="M605.869,651.377H94.377c-24.883,0-45.131-20.244-45.131-45.132c0-1.778,0.452-44.089,39.865-85.576
		c22.408-23.58,52.947-42.275,90.784-55.548c46.058-16.16,103.328-24.358,170.228-24.358s124.17,8.19,170.228,24.358
		c37.837,13.272,68.384,31.968,90.785,55.548C650.548,562.156,651,604.467,651,606.245C651,631.133,630.76,651.377,605.869,651.377z
		 M350.123,470.851c-267.689,0-270.789,134.044-270.789,135.395c0,8.302,6.747,15.044,15.043,15.044h511.491
		c8.274,0,15.007-6.714,15.043-14.97c-0.036-1.91-1.204-34.011-33.231-66.626C556.84,508.284,490.586,470.851,350.123,470.851z"/>
	<g>
		<linearGradient id="SVGID_1_" gradientUnits="userSpaceOnUse" x1="349.311" y1="49.5015" x2="349.311" y2="410.7954">
			<stop  offset="0" style="stop-color:#FFFFFF"/>
			<stop  offset="0.0226" style="stop-color:#FFFFFF"/>
			<stop  offset="0.16" style="stop-color:#FFFFFF"/>
			<stop  offset="0.5" style="stop-color:#FFFFFF;stop-opacity:0"/>
			<stop  offset="0.84" style="stop-color:#FFFFFF"/>
			<stop  offset="1" style="stop-color:#FFFFFF"/>
		</linearGradient>
		<path fill="url(#SVGID_1_)" d="M351.135,410.795c-99.609,0-180.646-81.038-180.646-180.646
			c0-99.609,81.038-180.647,180.646-180.647c43.315,0,85.209,15.565,117.965,43.829c30.318,26.162,51.076,61.608,59.033,100.522
			l-33.316-0.022c-14.725-65.894-72.978-111.412-143.682-111.412c-81.459,0-147.73,66.271-147.73,147.73
			c0,81.458,66.271,147.73,147.73,147.73c68.19,0,131.292-48.138,143.815-108.479l32.56-0.021
			C509.333,351.813,436.451,410.795,351.135,410.795z"/>
	</g>
	<g>
		<path fill="#FFFFFF" d="M344.024,410.552c-96.314-3.692-173.535-83.2-173.535-180.403c0-97.203,77.221-176.709,173.535-180.402
			v32.914c-78.179,3.666-140.651,68.418-140.651,147.488s62.472,143.823,140.651,147.488V410.552z"/>
	</g>
</g>
</svg>
