<?xml version="1.0" encoding="utf-8"?>
<!-- Generator: Adobe Illustrator 15.0.0, SVG Export Plug-In . SVG Version: 6.00 Build 0)  -->
<!DOCTYPE svg PUBLIC "-//W3C//DTD SVG 1.1//EN" "http://www.w3.org/Graphics/SVG/1.1/DTD/svg11.dtd">
<svg version="1.1" id="man-fill" xmlns="http://www.w3.org/2000/svg" xmlns:xlink="http://www.w3.org/1999/xlink" x="0px" y="0px"
	 width="700px" height="700px" viewBox="0 0 700 700" enable-background="new 0 0 700 700" xml:space="preserve">
<g>
	<rect x="-1" y="-1" fill="#E0E0E0" width="702" height="702"/>
	<path fill="#FFFFFF" d="M619.242,511.154c-30.006-25.566-134.389-89.799-168.275-110.455
		c10.215-19.518,13.886-38.211,16.453-51.285c0.469-2.389,1.001-5.103,1.5-7.296c20.263-2.64,29.807-13.672,34.281-22.943
		c5.566-11.532,5.622-24.857,5.663-34.588c0.009-2.16,0.019-4.199,0.084-5.944c0.036-0.951,0.093-2.007,0.152-3.146
		c0.645-12.224,1.725-32.683-10.817-46.317c-4.227-4.596-9.456-7.834-15.624-9.69c-0.236-8.559-0.603-22.153-1.04-39.634
		c-0.867-34.725-10.996-63.015-30.1-84.084c-24.129-26.611-61.496-40.104-111.062-40.104c-0.002,0,0.001,0-0.001,0
		c-41.997,0-74.937,11.981-97.891,35.607c-21.288,21.911-32.928,54.2-31.937,88.586c0.426,14.746,0.82,30.028,1.067,39.883
		c-4.86,1.661-9.013,4.299-12.416,7.897c-10.894,11.517-10.359,29.003-9.929,43.053c0.081,2.645,0.156,5.142,0.156,7.446
		c0,19.367-0.001,63.66,33.896,67.25c2.592,5.108,6.42,15.774,9.352,23.943c4.846,13.498,9.814,27.324,15.539,38.099
		c-14.38,9.87-37.764,24.03-62.464,38.988c-66.489,40.263-110.856,67.896-121.354,84.521
		c-19.609,31.047-18.938,57.238-11.899,87.012c6.262,26.485,41.503,34.891,45.501,35.763c0.875,0.189,1.768,0.286,2.662,0.286
		h493.477c1.528,0,37.638-0.357,54.488-31.473C659.504,602.589,662.125,547.691,619.242,511.154z"/>
	<path fill="none" stroke="#898989" stroke-width="25" stroke-linejoin="round" stroke-miterlimit="10" d="M461.791,330.166
		c38.666-1.333,33.994-34.317,34.666-52c0.515-13.518,4.763-47.07-26-48.018c0,0-0.549-18.621-1.333-49.982
		c-1.333-53.333-27.416-112-128.667-112c-93.377,0-118.713,63.528-117.333,111.333c0.714,24.744,1.333,50.649,1.333,50.649
		c-27.333,0.684-22.448,28.564-22.448,47.991c0,40.257,7.782,55.36,26.615,54.975c8.619-0.176,20.961,57.597,36,76.886
		c23,29.5,44.53,46.96,81.022,45.336c50.579-2.251,68.386-24.335,88.32-50.339C457.724,368.769,453.627,330.447,461.791,330.166z"/>
	<path fill="none" stroke="#898989" stroke-width="25" stroke-linejoin="round" stroke-miterlimit="10" d="M611.136,520.67
		c-34.856-29.699-177.17-115.672-177.17-115.672s67.97,41.496,28.255,109.583c-16.173,27.728-74.996,67.496-112.222,66.524
		c-28.337-0.739-93.336-38.384-107.591-63.609c-32.036-56.69,1.924-90.828,14.97-101.148
		c-42.199,29.515-167.543,97.848-182.335,121.269c-17.999,28.498-16.332,51.962-10.303,77.461
		c4.631,19.589,35.998,26.425,35.998,26.425h493.477c0,0,29.999,0,43.498-24.926C645.399,602.382,650.08,553.852,611.136,520.67z"/>
</g>
</svg>
