<?xml version="1.0" encoding="utf-8"?>
<!-- Generator: Adobe Illustrator 15.0.0, SVG Export Plug-In . SVG Version: 6.00 Build 0)  -->
<!DOCTYPE svg PUBLIC "-//W3C//DTD SVG 1.1//EN" "http://www.w3.org/Graphics/SVG/1.1/DTD/svg11.dtd">
<svg version="1.1" id="woman" xmlns="http://www.w3.org/2000/svg" xmlns:xlink="http://www.w3.org/1999/xlink" x="0px" y="0px"
	 width="700px" height="700px" viewBox="0 0 700 700" enable-background="new 0 0 700 700" xml:space="preserve">
<g>
	<rect x="-1" y="-1" fill="#E0E0E0" width="702" height="702"/>
	<path fill="#FFFFFF" d="M236.267,455.34c-72.136,36.185-63.03-67.84-77.638-96.091c-17.964-34.743-76.616-25.638-62.392-28.749
		c64-14,73.498-29.998,96-60c24-32-52-11-21.823-30.229c81.396-51.865,45.147-92.232,74.823-122.771
		c35.342-36.371,88.379-38.501,104.921-26c33.079,25,28.108-5.253,60.679,1.603c68.4,14.397,107.77,99.29,110.752,190.378
		c3.214,98.193,37.648,128.292-27.352,188.02l-0.516,0.85c27.764,17.24,61.68,35.097,100.108,49.018
		c76.495,27.713,56.646,128.378,11.998,136.887c-13.297,2.534-72.267,0.916-72.267,0.916l-370.323,0.509h-63
		c-60-4.509-69.114-91.512-6.202-127.788c55.036-31.735,109.922-53.786,149.062-81.162L236.267,455.34z"/>
	<path fill="none" stroke="#898989" stroke-width="25" stroke-linejoin="round" stroke-miterlimit="10" d="M605.333,525.957
		c-99.379-58.046-190.265-114.185-190.265-114.185s48.056,32.732,18.056,77.728c-17.807,26.707-45.898,78.524-83.123,77.553
		c-28.337-0.739-65.3-39.947-81.377-64.053c-26.908-40.347-6.676-63.348,15-90c-32.5,49.653-118.145,78.182-195.699,122.726
		C39.566,563.5,42.123,655.17,102.123,659.679h63l370.323-0.509c0,0,58.97,1.618,72.267-0.916
		C652.361,649.745,676.457,567.5,605.333,525.957z"/>
	<path fill="none" stroke="#898989" stroke-width="25" stroke-miterlimit="10" d="M340.033,439.652
		c-22.362,0-47.608-19.1-63.704-34.013c0,0-38.998-40.067-34.206-154.14c0.303-7.205,86.938-43.191,137.476-99.371
		c10.943-12.165,12.188,58.722,43.524,31.371c17.087-14.914,51.097,37.096,41.5,99.574
		C452.791,360.102,398.961,439.652,340.033,439.652z"/>
	<path fill="none" stroke="#898989" stroke-width="25" stroke-miterlimit="10" d="M238.153,455.34
		c-72.136,36.185-63.03-67.84-77.638-96.091c-17.964-34.743-76.616-25.638-62.392-28.749c64-14,73.498-29.998,96-60
		c24-32-52-11-21.823-30.229c81.396-51.865,45.147-92.232,74.823-122.771c35.342-36.371,88.379-38.501,104.921-26
		c33.079,25,28.108-5.253,60.679,1.603c68.4,14.397,107.77,99.29,110.752,190.378c3.214,98.193,37.648,128.292-27.352,188.02"/>
</g>
</svg>
