<?xml version="1.0" encoding="utf-8"?>
<!-- Generator: Adobe Illustrator 15.0.0, SVG Export Plug-In . SVG Version: 6.00 Build 0)  -->
<!DOCTYPE svg PUBLIC "-//W3C//DTD SVG 1.1//EN" "http://www.w3.org/Graphics/SVG/1.1/DTD/svg11.dtd">
<svg version="1.1" id="white" xmlns="http://www.w3.org/2000/svg" xmlns:xlink="http://www.w3.org/1999/xlink" x="0px" y="0px"
	 width="1152.424px" height="768px" viewBox="0 0 1152.424 768" enable-background="new 0 0 1152.424 768" xml:space="preserve">
<g>
	<g>
		<g>
			<linearGradient id="SVGID_1_" gradientUnits="userSpaceOnUse" x1="365.4639" y1="623.6074" x2="365.4638" y2="181.7578">
				<stop  offset="0" style="stop-color:#FFFFFF"/>
				<stop  offset="0.06" style="stop-color:#FFFFFF"/>
				<stop  offset="0.35" style="stop-color:#FFFFFF;stop-opacity:0"/>
				<stop  offset="0.5" style="stop-color:#FFFFFF;stop-opacity:0"/>
				<stop  offset="0.65" style="stop-color:#FFFFFF;stop-opacity:0"/>
				<stop  offset="0.94" style="stop-color:#FFFFFF"/>
				<stop  offset="1" style="stop-color:#FFFFFF"/>
			</linearGradient>
			<path fill="url(#SVGID_1_)" d="M369.506,623.607c-59.009,0-114.486-22.98-156.21-64.708
				c-41.723-41.726-64.701-97.202-64.701-156.21c0-59.014,22.978-114.495,64.701-156.223c41.724-41.728,97.2-64.709,156.21-64.709
				c48.75,0,94.967,15.565,133.658,45.012c37.444,28.499,65.294,68.937,78.42,113.864l0.749,2.563l-14.197-0.014l-0.433-1.414
				c-9.795-32.021-27.655-61.632-51.647-85.632c-39.158-39.152-91.204-60.714-146.549-60.714
				c-55.365,0-107.413,21.562-146.556,60.714c-39.146,39.126-60.705,91.172-60.705,146.551c0,55.366,21.559,107.412,60.705,146.551
				c39.145,39.15,91.192,60.711,146.556,60.711c55.344,0,107.39-21.561,146.55-60.711c20.831-20.833,36.659-45.15,47.046-72.275
				l0.488-1.276l14.502-0.094l-0.996,2.709C545.152,565.212,461.728,623.605,369.506,623.607L369.506,623.607z"/>
		</g>
		<g>
			<path fill="#FFFFFF" d="M369.506,623.607c-59.009,0-114.486-22.98-156.21-64.708c-41.723-41.726-64.701-97.202-64.701-156.21
				c0-58.905,22.904-114.313,64.494-156.017c41.582-41.696,96.908-64.75,155.787-64.916h2.63v13.667h-2.625
				c-55.125,0.155-106.954,21.717-145.931,60.714c-39.146,39.126-60.705,91.172-60.705,146.551
				c0,55.366,21.559,107.412,60.705,146.551c39.145,39.15,91.192,60.711,146.556,60.711h2v13.656H369.506z"/>
		</g>
	</g>
	<g>
		<g>
			<polygon fill="#FFFFFF" points="243.522,454.771 243.522,415.744 201.678,364.364 202.841,361.917 213.299,361.917 
				249.141,406.029 284.854,361.917 295.378,361.917 296.542,364.364 254.697,415.744 254.697,454.771 			"/>
			<path fill="#FFFFFF" d="M366.236,456.537c-8.157,0-15.873-0.94-22.931-2.795c-7.125-1.873-13.412-4.805-18.683-8.715
				c-5.309-3.938-9.528-9.003-12.541-15.054c-3.01-6.045-4.536-13.3-4.536-21.563c0-5.487,0.704-10.554,2.093-15.059
				c1.391-4.512,3.374-8.614,5.894-12.193c2.522-3.583,5.617-6.726,9.198-9.34c3.553-2.593,7.557-4.777,11.902-6.494
				c4.325-1.709,9.035-2.992,13.999-3.813c4.941-0.815,10.191-1.229,15.605-1.229c8.11,0,15.782,0.94,22.801,2.796
				c7.081,1.872,13.324,4.805,18.554,8.718c5.264,3.939,9.459,9.003,12.471,15.051c3.01,6.047,4.537,13.302,4.537,21.563
				s-1.526,15.517-4.537,21.563c-3.012,6.048-7.208,11.111-12.471,15.05c-5.229,3.911-11.471,6.845-18.554,8.718
				C382.022,455.597,374.35,456.537,366.236,456.537z M366.236,370.541c-7.807,0-14.769,0.861-20.692,2.558
				c-5.863,1.68-10.824,4.15-14.747,7.34c-3.891,3.164-6.872,7.129-8.86,11.785c-2.004,4.693-3.021,10.139-3.021,16.187
				c0,6.134,1.016,11.611,3.02,16.279c1.987,4.635,4.968,8.59,8.861,11.756c3.923,3.192,8.883,5.65,14.742,7.307
				c5.925,1.677,12.888,2.527,20.697,2.527c7.807,0,14.747-0.85,20.628-2.526c5.813-1.656,10.728-4.112,14.608-7.302
				c3.851-3.167,6.8-7.122,8.766-11.756c1.983-4.672,2.989-10.151,2.989-16.285s-1.006-11.613-2.989-16.287
				c-1.967-4.635-4.917-8.59-8.766-11.755c-3.878-3.188-8.793-5.644-14.608-7.302C380.982,371.39,374.042,370.541,366.236,370.541z"
				/>
			<path fill="#FFFFFF" d="M491.701,456.537c-7.635,0-14.426-0.741-20.185-2.204c-5.812-1.475-10.751-3.606-14.678-6.336
				c-3.979-2.769-7.011-6.142-9.012-10.027c-1.999-3.88-3.012-8.237-3.012-12.95v-63.103h11.175v63.757
				c0,2.723,0.732,5.337,2.177,7.77c1.463,2.466,3.688,4.663,6.613,6.53c2.99,1.911,6.76,3.454,11.205,4.587
				c4.482,1.141,9.771,1.719,15.717,1.719c5.902,0,11.168-0.578,15.653-1.72c4.444-1.133,8.213-2.675,11.203-4.585
				c2.923-1.866,5.148-4.063,6.614-6.531c1.444-2.435,2.176-5.049,2.176-7.77v-63.757h11.175v63.103
				c0,4.712-1.013,9.069-3.011,12.95c-1.999,3.884-5.019,7.256-8.975,10.024c-3.907,2.731-8.835,4.864-14.65,6.339
				C506.126,455.796,499.335,456.537,491.701,456.537z"/>
		</g>
	</g>
	<g>
		<g>
			<path fill="#FFFFFF" d="M570.818,455.643v-92.855h50.024c7.06,0,13.197,0.619,18.239,1.84c5.123,1.243,9.385,3.098,12.668,5.515
				c3.342,2.461,5.828,5.575,7.391,9.254c1.532,3.616,2.31,7.817,2.31,12.488c0,4.672-0.777,8.874-2.31,12.488
				c-1.56,3.676-4.043,6.809-7.381,9.312c-3.288,2.468-7.554,4.348-12.678,5.588c-5.041,1.222-11.178,1.841-18.239,1.841h-38.85
				v34.529H570.818z M615.644,410.461c2.403,0,4.971,0.012,7.702,0.033l0.609,0.003c2.451,0,4.908-0.13,7.304-0.387
				c2.567-0.273,5.042-0.761,7.358-1.45c2.225-0.66,4.211-1.682,5.906-3.037c1.664-1.328,3.018-3.104,4.025-5.279
				c1.017-2.187,1.531-5.032,1.531-8.459c0-4-0.654-7.236-1.945-9.618c-1.275-2.352-3.197-4.122-5.878-5.412
				c-2.776-1.335-6.376-2.246-10.701-2.706c-4.449-0.472-9.802-0.71-15.911-0.71h-33.651v37.022H615.644z"/>
			<polygon fill="#FFFFFF" points="687.186,455.643 687.186,362.788 765.065,362.788 765.065,373.439 699.08,373.439 
				699.08,401.371 761.73,401.371 761.73,411.826 699.08,411.826 699.08,444.992 766.045,444.992 766.045,455.643 			"/>
			<path fill="#FFFFFF" d="M877.089,455.643l-28.932-38.663c-0.985,0.062-1.979,0.111-2.964,0.145
				c-1.276,0.043-2.613,0.065-3.975,0.065h-35.059v38.453h-11.174v-92.855h46.232c6.917,0,12.943,0.55,17.912,1.636
				c5.056,1.107,9.272,2.814,12.533,5.072c3.332,2.308,5.805,5.234,7.351,8.698c1.519,3.41,2.288,7.421,2.288,11.925
				c0,7.057-1.907,12.813-5.668,17.109c-3.372,3.849-8.596,6.62-15.55,8.256l29.209,37.74l-1.187,2.418H877.089z M832.286,406.537
				c7.149,0,13.252-0.207,18.139-0.616c4.798-0.399,8.721-1.22,11.659-2.439c2.778-1.153,4.795-2.771,5.994-4.806
				c1.23-2.086,1.854-4.965,1.854-8.557c0-3.552-0.617-6.438-1.833-8.578c-1.182-2.074-3.167-3.72-5.899-4.889
				c-2.896-1.24-6.786-2.092-11.56-2.534c-4.881-0.451-10.969-0.68-18.093-0.68h-26.387v33.098H832.286z"/>
			<path fill="#FFFFFF" d="M950.391,457.408c-7.855,0-15.084-0.579-21.484-1.723c-6.384-1.14-12.563-2.722-18.369-4.701
				l-1.016-0.347v-11.079l2.268-1.289c5.75,3.427,11.916,5.808,18.327,7.077c6.479,1.284,13.388,1.935,20.536,1.935
				c5.055,0,9.782-0.304,14.05-0.901c4.211-0.589,7.892-1.533,10.942-2.809c2.943-1.23,5.247-2.836,6.846-4.771
				c1.551-1.877,2.305-4.132,2.305-6.893c0-2.169-0.597-4.012-1.823-5.635c-1.291-1.709-3.079-3.238-5.315-4.547
				c-2.312-1.355-5.079-2.578-8.222-3.635c-3.199-1.071-6.631-2.085-10.2-3.011c-3.63-0.938-7.391-1.859-11.177-2.737
				c-3.863-0.894-7.663-1.88-11.293-2.931c-3.662-1.059-7.176-2.264-10.444-3.58c-3.348-1.349-6.317-2.961-8.825-4.791
				c-2.568-1.874-4.638-4.075-6.149-6.541c-1.558-2.539-2.348-5.51-2.348-8.829c0-3.224,0.623-6.141,1.853-8.667
				c1.219-2.508,2.917-4.706,5.049-6.532c2.09-1.791,4.561-3.312,7.343-4.52c2.729-1.186,5.691-2.14,8.806-2.835
				c3.074-0.686,6.316-1.191,9.637-1.501c3.301-0.308,6.604-0.463,9.819-0.463c3.52,0,6.901,0.156,10.052,0.464
				c3.139,0.308,6.212,0.72,9.135,1.225c2.926,0.506,5.816,1.096,8.592,1.751c2.741,0.647,5.58,1.354,8.438,2.102l1.12,0.293v10.575
				l-2.156,1.349c-1.661-0.808-3.618-1.688-5.816-2.615c-2.149-0.905-4.646-1.729-7.421-2.448c-2.79-0.723-5.981-1.339-9.486-1.831
				c-3.495-0.489-7.434-0.737-11.706-0.737c-5.179,0-9.851,0.302-13.886,0.899c-3.971,0.588-7.362,1.507-10.079,2.729
				c-2.617,1.177-4.626,2.664-5.97,4.417c-1.312,1.708-1.95,3.698-1.95,6.084c0,1.924,0.582,3.556,1.78,4.989
				c1.288,1.546,3.078,2.944,5.321,4.156c2.341,1.263,5.121,2.426,8.263,3.457c3.187,1.049,6.634,2.053,10.248,2.981
				c3.639,0.937,7.389,1.883,11.245,2.841c3.877,0.963,7.69,2.016,11.335,3.129c3.669,1.119,7.197,2.391,10.486,3.779
				c3.349,1.414,6.319,3.094,8.831,4.992c2.565,1.94,4.632,4.195,6.141,6.702c1.554,2.579,2.342,5.589,2.342,8.947
				c0,3.576-0.692,6.763-2.057,9.472c-1.354,2.683-3.208,5.02-5.509,6.947c-2.264,1.899-4.948,3.498-7.979,4.75
				c-2.966,1.228-6.178,2.212-9.548,2.926c-3.335,0.706-6.832,1.211-10.393,1.5C957.352,457.264,953.824,457.408,950.391,457.408z"
				/>
		</g>
	</g>
</g>
</svg>
